# xmcd
# Copyright (C) 1995-1998 Ti Kan
#
# Track frame offsets:
#       150
#       20721
#       39041
#       52923
#       78104
#       98085
#       113934
#       135436
#       149802
#       171356
#       193868
#       216759
#       238549
#       259449
#       278370
#
# Disc length: 4110 seconds
#
# Revision: 0
# Processed by: cddbd v1.5.2PL0 Copyright (c) Steve Scherf et al.
# Submitted via: CD-Transfer v1.0
#
DISCID=d0100c0f
DTITLE=Neville Brothers - 
DYEAR=1900
DGENRE=
TTITLE0=Brother Blood
TTITLE1=Yellow Moon
TTITLE2=Louisiana 1927
TTITLE3=Brother John - Iko Iko
TTITLE4=Everybody Plays The Fool
TTITLE5=Sister Rosa
TTITLE6=Fly Like An Eagle
TTITLE7=Close Your Eyes
TTITLE8=Brother Jake
TTITLE9=Use Me
TTITLE10=Bird On The Wire
TTITLE11=Family Groove
TTITLE12=Don't Take Away My Heaven
TTITLE13=My Blood
TTITLE14=With God On Our Side
EXTD=
EXTT0=
EXTT1=
EXTT2=
EXTT3=
EXTT4=
EXTT5=
EXTT6=
EXTT7=
EXTT8=
EXTT9=
EXTT10=
EXTT11=
EXTT12=
EXTT13=
EXTT14=
PLAYORDER=
